<?xml version="1.0" encoding="UTF-8" standalone="no"?>
<!-- Generator: Adobe Illustrator 19.0.0, SVG Export Plug-In . SVG Version: 6.00 Build 0)  -->

<svg
   xmlns:dc="http://purl.org/dc/elements/1.1/"
   xmlns:cc="http://creativecommons.org/ns#"
   xmlns:rdf="http://www.w3.org/1999/02/22-rdf-syntax-ns#"
   xmlns:svg="http://www.w3.org/2000/svg"
   xmlns="http://www.w3.org/2000/svg"
   xmlns:sodipodi="http://sodipodi.sourceforge.net/DTD/sodipodi-0.dtd"
   xmlns:inkscape="http://www.inkscape.org/namespaces/inkscape"
   version="1.1"
   id="Warstwa_1"
   x="0px"
   y="0px"
   viewBox="0 0 150 150"
   style="enable-background:new 0 0 150 150;"
   xml:space="preserve"
   inkscape:version="0.48.4 r9939"
   width="100%"
   height="100%"
   sodipodi:docname="favi.svg"><metadata
     id="metadata3045"><rdf:RDF><cc:Work
         rdf:about=""><dc:format>image/svg+xml</dc:format><dc:type
           rdf:resource="http://purl.org/dc/dcmitype/StillImage" /></cc:Work></rdf:RDF></metadata><defs
     id="defs3043" /><sodipodi:namedview
     pagecolor="#ffffff"
     bordercolor="#666666"
     borderopacity="1"
     objecttolerance="10"
     gridtolerance="10"
     guidetolerance="10"
     inkscape:pageopacity="0"
     inkscape:pageshadow="2"
     inkscape:window-width="1362"
     inkscape:window-height="921"
     id="namedview3041"
     showgrid="false"
     inkscape:zoom="3.4066667"
     inkscape:cx="74.780425"
     inkscape:cy="73.909997"
     inkscape:window-x="75"
     inkscape:window-y="34"
     inkscape:window-maximized="0"
     inkscape:current-layer="Warstwa_1" /><style
     type="text/css"
     id="style3036">
	.st0{fill:#E84C3C;}
	.st1{fill:#FFFFFF;}
</style><path
     d="M 15 0 C 6.8 0 0 6.8 0 15 L 0 135 C 0 143.2 6.7 150 15 150 L 135 150 C 143.3 150 150 143.3 150 135 L 150 15 C 150 6.8 143.3 0 135 0 L 15 0 z M 77.3125 30 C 83.0125 30 88.1875 30.8875 92.6875 32.6875 C 97.2875 34.4875 101.2 36.99375 104.5 40.09375 L 101.09375 45.8125 C 100.39375 47.1125 99.40625 47.6875 97.90625 47.6875 C 97.00625 47.6875 96.1 47.4125 95 46.8125 C 93.9 46.2125 92.6 45.4875 91 44.6875 C 89.4 43.8875 87.50625 43.2 85.40625 42.5 C 83.20625 41.8 80.5875 41.5 77.6875 41.5 C 75.0875 41.5 72.7875 41.8 70.6875 42.5 C 68.5875 43.2 66.90625 44.0875 65.40625 45.1875 C 63.90625 46.2875 62.8 47.6875 62 49.1875 C 61.2 50.6875 60.8125 52.39375 60.8125 54.09375 C 60.8125 56.29375 61.3875 58.1875 62.6875 59.6875 C 63.9875 61.1875 65.7125 62.49375 67.8125 63.59375 C 69.9125 64.69375 72.3 65.7 75 66.5 C 77.7 67.3 80.5125 68.1875 83.3125 69.1875 C 86.1125 70.0875 88.89375 71.2125 91.59375 72.3125 C 94.29375 73.4125 96.7125 74.89375 98.8125 76.59375 C 100.9125 78.29375 102.60625 80.40625 103.90625 82.90625 C 105.20625 85.40625 105.8125 88.40625 105.8125 91.90625 C 105.8125 95.90625 105.09375 99.6 103.59375 103 C 102.19375 106.4 99.9875 109.40625 97.1875 111.90625 C 94.3875 114.40625 90.90625 116.4125 86.90625 117.8125 C 82.80625 119.2125 78.1125 120 72.8125 120 C 66.7125 120 61.2125 119 56.3125 117 C 51.4125 115 47.1875 112.50625 43.6875 109.40625 L 47.3125 103.59375 C 47.8125 102.89375 48.30625 102.30625 48.90625 101.90625 C 49.50625 101.50625 50.40625 101.3125 51.40625 101.3125 C 52.40625 101.3125 53.4875 101.7 54.6875 102.5 C 55.7875 103.3 57.20625 104.1875 58.90625 105.1875 C 60.50625 106.1875 62.5125 107.10625 64.8125 107.90625 C 67.1125 108.70625 70 109.09375 73.5 109.09375 C 76.5 109.09375 79.1125 108.70625 81.3125 107.90625 C 83.5125 107.10625 85.40625 106.1125 86.90625 104.8125 C 88.40625 103.5125 89.4875 101.9875 90.1875 100.1875 C 90.8875 98.4875 91.3125 96.5875 91.3125 94.6875 C 91.3125 92.2875 90.70625 90.2875 89.40625 88.6875 C 88.10625 87.0875 86.4125 85.7875 84.3125 84.6875 C 82.2125 83.5875 79.8 82.6125 77 81.8125 C 74.3 81.0125 71.4875 80.0875 68.6875 79.1875 C 65.8875 78.2875 63.10625 77.19375 60.40625 76.09375 C 57.70625 74.89375 55.29375 73.3875 53.09375 71.6875 C 50.99375 69.8875 49.3 67.69375 48 65.09375 C 46.7 62.49375 46.09375 59.29375 46.09375 55.59375 C 46.09375 52.29375 46.7875 49.1 48.1875 46 C 49.5875 42.9 51.5875 40.20625 54.1875 37.90625 C 56.7875 35.60625 60.10625 33.7125 63.90625 32.3125 C 68.00625 30.7125 72.3125 30 77.3125 30 z "
     id="XMLID_1_" /></svg>